<?xml version="1.0" encoding="UTF-8" standalone="no"?>
<!DOCTYPE svg PUBLIC "-//W3C//DTD SVG 1.1//EN"
 "http://www.w3.org/Graphics/SVG/1.1/DTD/svg11.dtd">
<!-- Generated by graphviz version 2.43.0 (0)
 -->
<!-- Title: rootgraph Pages: 1 -->
<svg width="1276pt" height="171pt"
 viewBox="0.00 0.00 1276.00 171.00" xmlns="http://www.w3.org/2000/svg" xmlns:xlink="http://www.w3.org/1999/xlink">
<g id="graph0" class="graph" transform="scale(1 1) rotate(0) translate(4 167)">
<title>rootgraph</title>
<polygon fill="white" stroke="transparent" points="-4,4 -4,-167 1272,-167 1272,4 -4,4"/>
<g id="clust1" class="cluster">
<title>cluster_0</title>
<path fill="none" stroke="black" d="M20,-80C20,-80 66,-80 66,-80 72,-80 78,-86 78,-92 78,-92 78,-143 78,-143 78,-149 72,-155 66,-155 66,-155 20,-155 20,-155 14,-155 8,-149 8,-143 8,-143 8,-92 8,-92 8,-86 14,-80 20,-80"/>
<text text-anchor="middle" x="43" y="-139.8" font-family="Times,serif" font-size="14.00">0</text>
</g>
<g id="clust2" class="cluster">
<title>cluster_1</title>
<path fill="none" stroke="black" d="M98,-8C98,-8 360,-8 360,-8 366,-8 372,-14 372,-20 372,-20 372,-143 372,-143 372,-149 366,-155 360,-155 360,-155 98,-155 98,-155 92,-155 86,-149 86,-143 86,-143 86,-20 86,-20 86,-14 92,-8 98,-8"/>
<text text-anchor="middle" x="229" y="-139.8" font-family="Times,serif" font-size="14.00">1</text>
</g>
<g id="clust3" class="cluster">
<title>cluster_2</title>
<path fill="none" stroke="black" d="M392,-8C392,-8 582,-8 582,-8 588,-8 594,-14 594,-20 594,-20 594,-143 594,-143 594,-149 588,-155 582,-155 582,-155 392,-155 392,-155 386,-155 380,-149 380,-143 380,-143 380,-20 380,-20 380,-14 386,-8 392,-8"/>
<text text-anchor="middle" x="487" y="-139.8" font-family="Times,serif" font-size="14.00">2</text>
</g>
<g id="clust4" class="cluster">
<title>cluster_3</title>
<path fill="none" stroke="black" d="M614,-8C614,-8 732,-8 732,-8 738,-8 744,-14 744,-20 744,-20 744,-143 744,-143 744,-149 738,-155 732,-155 732,-155 614,-155 614,-155 608,-155 602,-149 602,-143 602,-143 602,-20 602,-20 602,-14 608,-8 614,-8"/>
<text text-anchor="middle" x="673" y="-139.8" font-family="Times,serif" font-size="14.00">3</text>
</g>
<g id="clust5" class="cluster">
<title>cluster_4</title>
<path fill="none" stroke="black" d="M764,-8C764,-8 810,-8 810,-8 816,-8 822,-14 822,-20 822,-20 822,-143 822,-143 822,-149 816,-155 810,-155 810,-155 764,-155 764,-155 758,-155 752,-149 752,-143 752,-143 752,-20 752,-20 752,-14 758,-8 764,-8"/>
<text text-anchor="middle" x="787" y="-139.8" font-family="Times,serif" font-size="14.00">4</text>
</g>
<g id="clust6" class="cluster">
<title>cluster_5</title>
<path fill="none" stroke="black" d="M842,-8C842,-8 1248,-8 1248,-8 1254,-8 1260,-14 1260,-20 1260,-20 1260,-143 1260,-143 1260,-149 1254,-155 1248,-155 1248,-155 842,-155 842,-155 836,-155 830,-149 830,-143 830,-143 830,-20 830,-20 830,-14 836,-8 842,-8"/>
<text text-anchor="middle" x="1045" y="-139.8" font-family="Times,serif" font-size="14.00">5</text>
</g>
<!-- n0_0 -->
<g id="node1" class="node">
<title>n0_0</title>
<ellipse fill="#ff0000" stroke="black" cx="43" cy="-106" rx="27" ry="18"/>
</g>
<!-- n1_0 -->
<g id="node2" class="node">
<title>n1_0</title>
<ellipse fill="#00ff00" stroke="black" cx="229" cy="-106" rx="27" ry="18"/>
</g>
<!-- n1_1 -->
<g id="node3" class="node">
<title>n1_1</title>
<ellipse fill="#00ff00" stroke="black" cx="121" cy="-34" rx="27" ry="18"/>
</g>
<!-- n1_0&#45;&gt;n1_1 -->
<g id="edge1" class="edge">
<title>n1_0&#45;&gt;n1_1</title>
<path fill="none" stroke="black" d="M210.19,-92.81C193,-81.67 167.38,-65.06 148.01,-52.5"/>
<polygon fill="black" stroke="black" points="149.89,-49.56 139.6,-47.05 146.08,-55.43 149.89,-49.56"/>
</g>
<!-- n1_2 -->
<g id="node4" class="node">
<title>n1_2</title>
<ellipse fill="#00ff00" stroke="black" cx="193" cy="-34" rx="27" ry="18"/>
</g>
<!-- n1_0&#45;&gt;n1_2 -->
<g id="edge2" class="edge">
<title>n1_0&#45;&gt;n1_2</title>
<path fill="none" stroke="black" d="M220.65,-88.76C216.29,-80.28 210.85,-69.71 205.96,-60.2"/>
<polygon fill="black" stroke="black" points="208.99,-58.44 201.3,-51.15 202.77,-61.64 208.99,-58.44"/>
</g>
<!-- n1_3 -->
<g id="node5" class="node">
<title>n1_3</title>
<ellipse fill="#00ff00" stroke="black" cx="265" cy="-34" rx="27" ry="18"/>
</g>
<!-- n1_0&#45;&gt;n1_3 -->
<g id="edge3" class="edge">
<title>n1_0&#45;&gt;n1_3</title>
<path fill="none" stroke="black" d="M237.35,-88.76C241.71,-80.28 247.15,-69.71 252.04,-60.2"/>
<polygon fill="black" stroke="black" points="255.23,-61.64 256.7,-51.15 249.01,-58.44 255.23,-61.64"/>
</g>
<!-- n1_4 -->
<g id="node6" class="node">
<title>n1_4</title>
<ellipse fill="#00ff00" stroke="black" cx="337" cy="-34" rx="27" ry="18"/>
</g>
<!-- n1_0&#45;&gt;n1_4 -->
<g id="edge4" class="edge">
<title>n1_0&#45;&gt;n1_4</title>
<path fill="none" stroke="black" d="M247.81,-92.81C265,-81.67 290.62,-65.06 309.99,-52.5"/>
<polygon fill="black" stroke="black" points="311.92,-55.43 318.4,-47.05 308.11,-49.56 311.92,-55.43"/>
</g>
<!-- n2_0 -->
<g id="node7" class="node">
<title>n2_0</title>
<ellipse fill="#0000ff" stroke="black" cx="487" cy="-106" rx="27" ry="18"/>
</g>
<!-- n2_1 -->
<g id="node8" class="node">
<title>n2_1</title>
<ellipse fill="#0000ff" stroke="black" cx="415" cy="-34" rx="27" ry="18"/>
</g>
<!-- n2_0&#45;&gt;n2_1 -->
<g id="edge5" class="edge">
<title>n2_0&#45;&gt;n2_1</title>
<path fill="none" stroke="black" d="M472.43,-90.83C462.25,-80.94 448.48,-67.55 436.97,-56.36"/>
<polygon fill="black" stroke="black" points="439.41,-53.85 429.8,-49.38 434.53,-58.87 439.41,-53.85"/>
</g>
<!-- n2_2 -->
<g id="node9" class="node">
<title>n2_2</title>
<ellipse fill="#0000ff" stroke="black" cx="487" cy="-34" rx="27" ry="18"/>
</g>
<!-- n2_0&#45;&gt;n2_2 -->
<g id="edge6" class="edge">
<title>n2_0&#45;&gt;n2_2</title>
<path fill="none" stroke="black" d="M487,-87.7C487,-79.98 487,-70.71 487,-62.11"/>
<polygon fill="black" stroke="black" points="490.5,-62.1 487,-52.1 483.5,-62.1 490.5,-62.1"/>
</g>
<!-- n2_3 -->
<g id="node10" class="node">
<title>n2_3</title>
<ellipse fill="#0000ff" stroke="black" cx="559" cy="-34" rx="27" ry="18"/>
</g>
<!-- n2_0&#45;&gt;n2_3 -->
<g id="edge7" class="edge">
<title>n2_0&#45;&gt;n2_3</title>
<path fill="none" stroke="black" d="M501.57,-90.83C511.75,-80.94 525.52,-67.55 537.03,-56.36"/>
<polygon fill="black" stroke="black" points="539.47,-58.87 544.2,-49.38 534.59,-53.85 539.47,-58.87"/>
</g>
<!-- n3_0 -->
<g id="node11" class="node">
<title>n3_0</title>
<ellipse fill="#ffff00" stroke="black" cx="673" cy="-106" rx="27" ry="18"/>
</g>
<!-- n3_1 -->
<g id="node12" class="node">
<title>n3_1</title>
<ellipse fill="#ffff00" stroke="black" cx="637" cy="-34" rx="27" ry="18"/>
</g>
<!-- n3_0&#45;&gt;n3_1 -->
<g id="edge8" class="edge">
<title>n3_0&#45;&gt;n3_1</title>
<path fill="none" stroke="black" d="M664.65,-88.76C660.29,-80.28 654.85,-69.71 649.96,-60.2"/>
<polygon fill="black" stroke="black" points="652.99,-58.44 645.3,-51.15 646.77,-61.64 652.99,-58.44"/>
</g>
<!-- n3_2 -->
<g id="node13" class="node">
<title>n3_2</title>
<ellipse fill="#ffff00" stroke="black" cx="709" cy="-34" rx="27" ry="18"/>
</g>
<!-- n3_0&#45;&gt;n3_2 -->
<g id="edge9" class="edge">
<title>n3_0&#45;&gt;n3_2</title>
<path fill="none" stroke="black" d="M681.35,-88.76C685.71,-80.28 691.15,-69.71 696.04,-60.2"/>
<polygon fill="black" stroke="black" points="699.23,-61.64 700.7,-51.15 693.01,-58.44 699.23,-61.64"/>
</g>
<!-- n4_0 -->
<g id="node14" class="node">
<title>n4_0</title>
<ellipse fill="#ff00ff" stroke="black" cx="787" cy="-106" rx="27" ry="18"/>
</g>
<!-- n4_1 -->
<g id="node15" class="node">
<title>n4_1</title>
<ellipse fill="#ff00ff" stroke="black" cx="787" cy="-34" rx="27" ry="18"/>
</g>
<!-- n4_0&#45;&gt;n4_1 -->
<g id="edge10" class="edge">
<title>n4_0&#45;&gt;n4_1</title>
<path fill="none" stroke="black" d="M787,-87.7C787,-79.98 787,-70.71 787,-62.11"/>
<polygon fill="black" stroke="black" points="790.5,-62.1 787,-52.1 783.5,-62.1 790.5,-62.1"/>
</g>
<!-- n5_0 -->
<g id="node16" class="node">
<title>n5_0</title>
<ellipse fill="#00ffff" stroke="black" cx="1045" cy="-106" rx="27" ry="18"/>
</g>
<!-- n5_1 -->
<g id="node17" class="node">
<title>n5_1</title>
<ellipse fill="#00ffff" stroke="black" cx="865" cy="-34" rx="27" ry="18"/>
</g>
<!-- n5_0&#45;&gt;n5_1 -->
<g id="edge11" class="edge">
<title>n5_0&#45;&gt;n5_1</title>
<path fill="none" stroke="black" d="M1021.31,-97C992.56,-87.13 942.77,-69.51 901,-52 899.18,-51.24 897.32,-50.44 895.46,-49.61"/>
<polygon fill="black" stroke="black" points="896.73,-46.35 886.18,-45.38 893.83,-52.71 896.73,-46.35"/>
</g>
<!-- n5_2 -->
<g id="node18" class="node">
<title>n5_2</title>
<ellipse fill="#00ffff" stroke="black" cx="937" cy="-34" rx="27" ry="18"/>
</g>
<!-- n5_0&#45;&gt;n5_2 -->
<g id="edge12" class="edge">
<title>n5_0&#45;&gt;n5_2</title>
<path fill="none" stroke="black" d="M1026.19,-92.81C1009,-81.67 983.38,-65.06 964.01,-52.5"/>
<polygon fill="black" stroke="black" points="965.89,-49.56 955.6,-47.05 962.08,-55.43 965.89,-49.56"/>
</g>
<!-- n5_3 -->
<g id="node19" class="node">
<title>n5_3</title>
<ellipse fill="#00ffff" stroke="black" cx="1009" cy="-34" rx="27" ry="18"/>
</g>
<!-- n5_0&#45;&gt;n5_3 -->
<g id="edge13" class="edge">
<title>n5_0&#45;&gt;n5_3</title>
<path fill="none" stroke="black" d="M1036.65,-88.76C1032.29,-80.28 1026.85,-69.71 1021.96,-60.2"/>
<polygon fill="black" stroke="black" points="1024.99,-58.44 1017.3,-51.15 1018.77,-61.64 1024.99,-58.44"/>
</g>
<!-- n5_4 -->
<g id="node20" class="node">
<title>n5_4</title>
<ellipse fill="#00ffff" stroke="black" cx="1081" cy="-34" rx="27" ry="18"/>
</g>
<!-- n5_0&#45;&gt;n5_4 -->
<g id="edge14" class="edge">
<title>n5_0&#45;&gt;n5_4</title>
<path fill="none" stroke="black" d="M1053.35,-88.76C1057.71,-80.28 1063.15,-69.71 1068.04,-60.2"/>
<polygon fill="black" stroke="black" points="1071.23,-61.64 1072.7,-51.15 1065.01,-58.44 1071.23,-61.64"/>
</g>
<!-- n5_5 -->
<g id="node21" class="node">
<title>n5_5</title>
<ellipse fill="#00ffff" stroke="black" cx="1153" cy="-34" rx="27" ry="18"/>
</g>
<!-- n5_0&#45;&gt;n5_5 -->
<g id="edge15" class="edge">
<title>n5_0&#45;&gt;n5_5</title>
<path fill="none" stroke="black" d="M1063.81,-92.81C1081,-81.67 1106.62,-65.06 1125.99,-52.5"/>
<polygon fill="black" stroke="black" points="1127.92,-55.43 1134.4,-47.05 1124.11,-49.56 1127.92,-55.43"/>
</g>
<!-- n5_6 -->
<g id="node22" class="node">
<title>n5_6</title>
<ellipse fill="#00ffff" stroke="black" cx="1225" cy="-34" rx="27" ry="18"/>
</g>
<!-- n5_0&#45;&gt;n5_6 -->
<g id="edge16" class="edge">
<title>n5_0&#45;&gt;n5_6</title>
<path fill="none" stroke="black" d="M1068.69,-97C1097.44,-87.13 1147.23,-69.51 1189,-52 1190.82,-51.24 1192.68,-50.44 1194.54,-49.61"/>
<polygon fill="black" stroke="black" points="1196.17,-52.71 1203.82,-45.38 1193.27,-46.35 1196.17,-52.71"/>
</g>
</g>
</svg>
