<?xml version="1.0" encoding="UTF-8" standalone="no"?>
<!DOCTYPE svg PUBLIC "-//W3C//DTD SVG 1.1//EN"
 "http://www.w3.org/Graphics/SVG/1.1/DTD/svg11.dtd">
<!-- Generated by graphviz version 2.43.0 (0)
 -->
<!-- Title: rootgraph Pages: 1 -->
<svg width="1492pt" height="243pt"
 viewBox="0.00 0.00 1492.00 243.00" xmlns="http://www.w3.org/2000/svg" xmlns:xlink="http://www.w3.org/1999/xlink">
<g id="graph0" class="graph" transform="scale(1 1) rotate(0) translate(4 239)">
<title>rootgraph</title>
<polygon fill="white" stroke="transparent" points="-4,4 -4,-239 1488,-239 1488,4 -4,4"/>
<g id="clust1" class="cluster">
<title>cluster_0</title>
<path fill="none" stroke="black" d="M20,-80C20,-80 354,-80 354,-80 360,-80 366,-86 366,-92 366,-92 366,-215 366,-215 366,-221 360,-227 354,-227 354,-227 20,-227 20,-227 14,-227 8,-221 8,-215 8,-215 8,-92 8,-92 8,-86 14,-80 20,-80"/>
<text text-anchor="middle" x="187" y="-211.8" font-family="Times,serif" font-size="14.00">0</text>
</g>
<g id="clust2" class="cluster">
<title>cluster_1</title>
<path fill="none" stroke="black" d="M386,-8C386,-8 576,-8 576,-8 582,-8 588,-14 588,-20 588,-20 588,-215 588,-215 588,-221 582,-227 576,-227 576,-227 386,-227 386,-227 380,-227 374,-221 374,-215 374,-215 374,-20 374,-20 374,-14 380,-8 386,-8"/>
<text text-anchor="middle" x="481" y="-211.8" font-family="Times,serif" font-size="14.00">1</text>
</g>
<g id="clust3" class="cluster">
<title>cluster_2</title>
<path fill="none" stroke="black" d="M608,-80C608,-80 726,-80 726,-80 732,-80 738,-86 738,-92 738,-92 738,-215 738,-215 738,-221 732,-227 726,-227 726,-227 608,-227 608,-227 602,-227 596,-221 596,-215 596,-215 596,-92 596,-92 596,-86 602,-80 608,-80"/>
<text text-anchor="middle" x="667" y="-211.8" font-family="Times,serif" font-size="14.00">2</text>
</g>
<g id="clust4" class="cluster">
<title>cluster_3</title>
<path fill="none" stroke="black" d="M758,-80C758,-80 1020,-80 1020,-80 1026,-80 1032,-86 1032,-92 1032,-92 1032,-215 1032,-215 1032,-221 1026,-227 1020,-227 1020,-227 758,-227 758,-227 752,-227 746,-221 746,-215 746,-215 746,-92 746,-92 746,-86 752,-80 758,-80"/>
<text text-anchor="middle" x="889" y="-211.8" font-family="Times,serif" font-size="14.00">3</text>
</g>
<g id="clust5" class="cluster">
<title>cluster_4</title>
<path fill="none" stroke="black" d="M1052,-8C1052,-8 1170,-8 1170,-8 1176,-8 1182,-14 1182,-20 1182,-20 1182,-215 1182,-215 1182,-221 1176,-227 1170,-227 1170,-227 1052,-227 1052,-227 1046,-227 1040,-221 1040,-215 1040,-215 1040,-20 1040,-20 1040,-14 1046,-8 1052,-8"/>
<text text-anchor="middle" x="1111" y="-211.8" font-family="Times,serif" font-size="14.00">4</text>
</g>
<g id="clust6" class="cluster">
<title>cluster_5</title>
<path fill="none" stroke="black" d="M1202,-8C1202,-8 1464,-8 1464,-8 1470,-8 1476,-14 1476,-20 1476,-20 1476,-215 1476,-215 1476,-221 1470,-227 1464,-227 1464,-227 1202,-227 1202,-227 1196,-227 1190,-221 1190,-215 1190,-215 1190,-20 1190,-20 1190,-14 1196,-8 1202,-8"/>
<text text-anchor="middle" x="1333" y="-211.8" font-family="Times,serif" font-size="14.00">5</text>
</g>
<!-- n0_0 -->
<g id="node1" class="node">
<title>n0_0</title>
<ellipse fill="#ff0000" stroke="black" cx="187" cy="-178" rx="27" ry="18"/>
</g>
<!-- n0_1 -->
<g id="node2" class="node">
<title>n0_1</title>
<ellipse fill="#ff0000" stroke="black" cx="43" cy="-106" rx="27" ry="18"/>
</g>
<!-- n0_0&#45;&gt;n0_1 -->
<g id="edge1" class="edge">
<title>n0_0&#45;&gt;n0_1</title>
<path fill="none" stroke="black" d="M165.75,-166.67C141.4,-154.83 101.28,-135.33 73.57,-121.86"/>
<polygon fill="black" stroke="black" points="74.86,-118.6 64.33,-117.37 71.8,-124.89 74.86,-118.6"/>
</g>
<!-- n0_2 -->
<g id="node3" class="node">
<title>n0_2</title>
<ellipse fill="#ff0000" stroke="black" cx="115" cy="-106" rx="27" ry="18"/>
</g>
<!-- n0_0&#45;&gt;n0_2 -->
<g id="edge2" class="edge">
<title>n0_0&#45;&gt;n0_2</title>
<path fill="none" stroke="black" d="M172.43,-162.83C162.25,-152.94 148.48,-139.55 136.97,-128.36"/>
<polygon fill="black" stroke="black" points="139.41,-125.85 129.8,-121.38 134.53,-130.87 139.41,-125.85"/>
</g>
<!-- n0_3 -->
<g id="node4" class="node">
<title>n0_3</title>
<ellipse fill="#ff0000" stroke="black" cx="187" cy="-106" rx="27" ry="18"/>
</g>
<!-- n0_0&#45;&gt;n0_3 -->
<g id="edge3" class="edge">
<title>n0_0&#45;&gt;n0_3</title>
<path fill="none" stroke="black" d="M187,-159.7C187,-151.98 187,-142.71 187,-134.11"/>
<polygon fill="black" stroke="black" points="190.5,-134.1 187,-124.1 183.5,-134.1 190.5,-134.1"/>
</g>
<!-- n0_4 -->
<g id="node5" class="node">
<title>n0_4</title>
<ellipse fill="#ff0000" stroke="black" cx="259" cy="-106" rx="27" ry="18"/>
</g>
<!-- n0_0&#45;&gt;n0_4 -->
<g id="edge4" class="edge">
<title>n0_0&#45;&gt;n0_4</title>
<path fill="none" stroke="black" d="M201.57,-162.83C211.75,-152.94 225.52,-139.55 237.03,-128.36"/>
<polygon fill="black" stroke="black" points="239.47,-130.87 244.2,-121.38 234.59,-125.85 239.47,-130.87"/>
</g>
<!-- n0_5 -->
<g id="node6" class="node">
<title>n0_5</title>
<ellipse fill="#ff0000" stroke="black" cx="331" cy="-106" rx="27" ry="18"/>
</g>
<!-- n0_0&#45;&gt;n0_5 -->
<g id="edge5" class="edge">
<title>n0_0&#45;&gt;n0_5</title>
<path fill="none" stroke="black" d="M208.25,-166.67C232.6,-154.83 272.72,-135.33 300.43,-121.86"/>
<polygon fill="black" stroke="black" points="302.2,-124.89 309.67,-117.37 299.14,-118.6 302.2,-124.89"/>
</g>
<!-- n1_0 -->
<g id="node7" class="node">
<title>n1_0</title>
<ellipse fill="#00ff00" stroke="black" cx="481" cy="-178" rx="27" ry="18"/>
</g>
<!-- n1_1 -->
<g id="node8" class="node">
<title>n1_1</title>
<ellipse fill="#00ff00" stroke="black" cx="409" cy="-106" rx="27" ry="18"/>
</g>
<!-- n1_0&#45;&gt;n1_1 -->
<g id="edge6" class="edge">
<title>n1_0&#45;&gt;n1_1</title>
<path fill="none" stroke="black" d="M466.43,-162.83C456.25,-152.94 442.48,-139.55 430.97,-128.36"/>
<polygon fill="black" stroke="black" points="433.41,-125.85 423.8,-121.38 428.53,-130.87 433.41,-125.85"/>
</g>
<!-- n1_3 -->
<g id="node9" class="node">
<title>n1_3</title>
<ellipse fill="#00ff00" stroke="black" cx="481" cy="-106" rx="27" ry="18"/>
</g>
<!-- n1_0&#45;&gt;n1_3 -->
<g id="edge7" class="edge">
<title>n1_0&#45;&gt;n1_3</title>
<path fill="none" stroke="black" d="M481,-159.7C481,-151.98 481,-142.71 481,-134.11"/>
<polygon fill="black" stroke="black" points="484.5,-134.1 481,-124.1 477.5,-134.1 484.5,-134.1"/>
</g>
<!-- n1_5 -->
<g id="node10" class="node">
<title>n1_5</title>
<ellipse fill="#00ff00" stroke="black" cx="553" cy="-106" rx="27" ry="18"/>
</g>
<!-- n1_0&#45;&gt;n1_5 -->
<g id="edge8" class="edge">
<title>n1_0&#45;&gt;n1_5</title>
<path fill="none" stroke="black" d="M495.57,-162.83C505.75,-152.94 519.52,-139.55 531.03,-128.36"/>
<polygon fill="black" stroke="black" points="533.47,-130.87 538.2,-121.38 528.59,-125.85 533.47,-130.87"/>
</g>
<!-- n1_2 -->
<g id="node11" class="node">
<title>n1_2</title>
<ellipse fill="#00ff00" stroke="black" cx="409" cy="-34" rx="27" ry="18"/>
</g>
<!-- n1_1&#45;&gt;n1_2 -->
<g id="edge9" class="edge">
<title>n1_1&#45;&gt;n1_2</title>
<path fill="none" stroke="black" d="M409,-87.7C409,-79.98 409,-70.71 409,-62.11"/>
<polygon fill="black" stroke="black" points="412.5,-62.1 409,-52.1 405.5,-62.1 412.5,-62.1"/>
</g>
<!-- n1_4 -->
<g id="node12" class="node">
<title>n1_4</title>
<ellipse fill="#00ff00" stroke="black" cx="481" cy="-34" rx="27" ry="18"/>
</g>
<!-- n1_3&#45;&gt;n1_4 -->
<g id="edge10" class="edge">
<title>n1_3&#45;&gt;n1_4</title>
<path fill="none" stroke="black" d="M481,-87.7C481,-79.98 481,-70.71 481,-62.11"/>
<polygon fill="black" stroke="black" points="484.5,-62.1 481,-52.1 477.5,-62.1 484.5,-62.1"/>
</g>
<!-- n2_0 -->
<g id="node13" class="node">
<title>n2_0</title>
<ellipse fill="#0000ff" stroke="black" cx="667" cy="-178" rx="27" ry="18"/>
</g>
<!-- n2_1 -->
<g id="node14" class="node">
<title>n2_1</title>
<ellipse fill="#0000ff" stroke="black" cx="631" cy="-106" rx="27" ry="18"/>
</g>
<!-- n2_0&#45;&gt;n2_1 -->
<g id="edge11" class="edge">
<title>n2_0&#45;&gt;n2_1</title>
<path fill="none" stroke="black" d="M658.65,-160.76C654.29,-152.28 648.85,-141.71 643.96,-132.2"/>
<polygon fill="black" stroke="black" points="646.99,-130.44 639.3,-123.15 640.77,-133.64 646.99,-130.44"/>
</g>
<!-- n2_2 -->
<g id="node15" class="node">
<title>n2_2</title>
<ellipse fill="#0000ff" stroke="black" cx="703" cy="-106" rx="27" ry="18"/>
</g>
<!-- n2_0&#45;&gt;n2_2 -->
<g id="edge12" class="edge">
<title>n2_0&#45;&gt;n2_2</title>
<path fill="none" stroke="black" d="M675.35,-160.76C679.71,-152.28 685.15,-141.71 690.04,-132.2"/>
<polygon fill="black" stroke="black" points="693.23,-133.64 694.7,-123.15 687.01,-130.44 693.23,-133.64"/>
</g>
<!-- n3_0 -->
<g id="node16" class="node">
<title>n3_0</title>
<ellipse fill="#ffff00" stroke="black" cx="889" cy="-178" rx="27" ry="18"/>
</g>
<!-- n3_1 -->
<g id="node17" class="node">
<title>n3_1</title>
<ellipse fill="#ffff00" stroke="black" cx="781" cy="-106" rx="27" ry="18"/>
</g>
<!-- n3_0&#45;&gt;n3_1 -->
<g id="edge13" class="edge">
<title>n3_0&#45;&gt;n3_1</title>
<path fill="none" stroke="black" d="M870.19,-164.81C853,-153.67 827.38,-137.06 808.01,-124.5"/>
<polygon fill="black" stroke="black" points="809.89,-121.56 799.6,-119.05 806.08,-127.43 809.89,-121.56"/>
</g>
<!-- n3_2 -->
<g id="node18" class="node">
<title>n3_2</title>
<ellipse fill="#ffff00" stroke="black" cx="853" cy="-106" rx="27" ry="18"/>
</g>
<!-- n3_0&#45;&gt;n3_2 -->
<g id="edge14" class="edge">
<title>n3_0&#45;&gt;n3_2</title>
<path fill="none" stroke="black" d="M880.65,-160.76C876.29,-152.28 870.85,-141.71 865.96,-132.2"/>
<polygon fill="black" stroke="black" points="868.99,-130.44 861.3,-123.15 862.77,-133.64 868.99,-130.44"/>
</g>
<!-- n3_3 -->
<g id="node19" class="node">
<title>n3_3</title>
<ellipse fill="#ffff00" stroke="black" cx="925" cy="-106" rx="27" ry="18"/>
</g>
<!-- n3_0&#45;&gt;n3_3 -->
<g id="edge15" class="edge">
<title>n3_0&#45;&gt;n3_3</title>
<path fill="none" stroke="black" d="M897.35,-160.76C901.71,-152.28 907.15,-141.71 912.04,-132.2"/>
<polygon fill="black" stroke="black" points="915.23,-133.64 916.7,-123.15 909.01,-130.44 915.23,-133.64"/>
</g>
<!-- n3_4 -->
<g id="node20" class="node">
<title>n3_4</title>
<ellipse fill="#ffff00" stroke="black" cx="997" cy="-106" rx="27" ry="18"/>
</g>
<!-- n3_0&#45;&gt;n3_4 -->
<g id="edge16" class="edge">
<title>n3_0&#45;&gt;n3_4</title>
<path fill="none" stroke="black" d="M907.81,-164.81C925,-153.67 950.62,-137.06 969.99,-124.5"/>
<polygon fill="black" stroke="black" points="971.92,-127.43 978.4,-119.05 968.11,-121.56 971.92,-127.43"/>
</g>
<!-- n4_0 -->
<g id="node21" class="node">
<title>n4_0</title>
<ellipse fill="#ff00ff" stroke="black" cx="1111" cy="-178" rx="27" ry="18"/>
</g>
<!-- n4_1 -->
<g id="node22" class="node">
<title>n4_1</title>
<ellipse fill="#ff00ff" stroke="black" cx="1075" cy="-106" rx="27" ry="18"/>
</g>
<!-- n4_0&#45;&gt;n4_1 -->
<g id="edge17" class="edge">
<title>n4_0&#45;&gt;n4_1</title>
<path fill="none" stroke="black" d="M1102.65,-160.76C1098.29,-152.28 1092.85,-141.71 1087.96,-132.2"/>
<polygon fill="black" stroke="black" points="1090.99,-130.44 1083.3,-123.15 1084.77,-133.64 1090.99,-130.44"/>
</g>
<!-- n4_3 -->
<g id="node23" class="node">
<title>n4_3</title>
<ellipse fill="#ff00ff" stroke="black" cx="1147" cy="-106" rx="27" ry="18"/>
</g>
<!-- n4_0&#45;&gt;n4_3 -->
<g id="edge18" class="edge">
<title>n4_0&#45;&gt;n4_3</title>
<path fill="none" stroke="black" d="M1119.35,-160.76C1123.71,-152.28 1129.15,-141.71 1134.04,-132.2"/>
<polygon fill="black" stroke="black" points="1137.23,-133.64 1138.7,-123.15 1131.01,-130.44 1137.23,-133.64"/>
</g>
<!-- n4_2 -->
<g id="node24" class="node">
<title>n4_2</title>
<ellipse fill="#ff00ff" stroke="black" cx="1075" cy="-34" rx="27" ry="18"/>
</g>
<!-- n4_1&#45;&gt;n4_2 -->
<g id="edge19" class="edge">
<title>n4_1&#45;&gt;n4_2</title>
<path fill="none" stroke="black" d="M1075,-87.7C1075,-79.98 1075,-70.71 1075,-62.11"/>
<polygon fill="black" stroke="black" points="1078.5,-62.1 1075,-52.1 1071.5,-62.1 1078.5,-62.1"/>
</g>
<!-- n5_0 -->
<g id="node25" class="node">
<title>n5_0</title>
<ellipse fill="#00ffff" stroke="black" cx="1333" cy="-178" rx="27" ry="18"/>
</g>
<!-- n5_1 -->
<g id="node26" class="node">
<title>n5_1</title>
<ellipse fill="#00ffff" stroke="black" cx="1225" cy="-106" rx="27" ry="18"/>
</g>
<!-- n5_0&#45;&gt;n5_1 -->
<g id="edge20" class="edge">
<title>n5_0&#45;&gt;n5_1</title>
<path fill="none" stroke="black" d="M1314.19,-164.81C1297,-153.67 1271.38,-137.06 1252.01,-124.5"/>
<polygon fill="black" stroke="black" points="1253.89,-121.56 1243.6,-119.05 1250.08,-127.43 1253.89,-121.56"/>
</g>
<!-- n5_4 -->
<g id="node27" class="node">
<title>n5_4</title>
<ellipse fill="#00ffff" stroke="black" cx="1297" cy="-106" rx="27" ry="18"/>
</g>
<!-- n5_0&#45;&gt;n5_4 -->
<g id="edge21" class="edge">
<title>n5_0&#45;&gt;n5_4</title>
<path fill="none" stroke="black" d="M1324.65,-160.76C1320.29,-152.28 1314.85,-141.71 1309.96,-132.2"/>
<polygon fill="black" stroke="black" points="1312.99,-130.44 1305.3,-123.15 1306.77,-133.64 1312.99,-130.44"/>
</g>
<!-- n5_6 -->
<g id="node28" class="node">
<title>n5_6</title>
<ellipse fill="#00ffff" stroke="black" cx="1369" cy="-106" rx="27" ry="18"/>
</g>
<!-- n5_0&#45;&gt;n5_6 -->
<g id="edge22" class="edge">
<title>n5_0&#45;&gt;n5_6</title>
<path fill="none" stroke="black" d="M1341.35,-160.76C1345.71,-152.28 1351.15,-141.71 1356.04,-132.2"/>
<polygon fill="black" stroke="black" points="1359.23,-133.64 1360.7,-123.15 1353.01,-130.44 1359.23,-133.64"/>
</g>
<!-- n5_7 -->
<g id="node29" class="node">
<title>n5_7</title>
<ellipse fill="#00ffff" stroke="black" cx="1441" cy="-106" rx="27" ry="18"/>
</g>
<!-- n5_0&#45;&gt;n5_7 -->
<g id="edge23" class="edge">
<title>n5_0&#45;&gt;n5_7</title>
<path fill="none" stroke="black" d="M1351.81,-164.81C1369,-153.67 1394.62,-137.06 1413.99,-124.5"/>
<polygon fill="black" stroke="black" points="1415.92,-127.43 1422.4,-119.05 1412.11,-121.56 1415.92,-127.43"/>
</g>
<!-- n5_2 -->
<g id="node30" class="node">
<title>n5_2</title>
<ellipse fill="#00ffff" stroke="black" cx="1225" cy="-34" rx="27" ry="18"/>
</g>
<!-- n5_1&#45;&gt;n5_2 -->
<g id="edge24" class="edge">
<title>n5_1&#45;&gt;n5_2</title>
<path fill="none" stroke="black" d="M1225,-87.7C1225,-79.98 1225,-70.71 1225,-62.11"/>
<polygon fill="black" stroke="black" points="1228.5,-62.1 1225,-52.1 1221.5,-62.1 1228.5,-62.1"/>
</g>
<!-- n5_3 -->
<g id="node31" class="node">
<title>n5_3</title>
<ellipse fill="#00ffff" stroke="black" cx="1297" cy="-34" rx="27" ry="18"/>
</g>
<!-- n5_1&#45;&gt;n5_3 -->
<g id="edge25" class="edge">
<title>n5_1&#45;&gt;n5_3</title>
<path fill="none" stroke="black" d="M1239.57,-90.83C1249.75,-80.94 1263.52,-67.55 1275.03,-56.36"/>
<polygon fill="black" stroke="black" points="1277.47,-58.87 1282.2,-49.38 1272.59,-53.85 1277.47,-58.87"/>
</g>
<!-- n5_5 -->
<g id="node32" class="node">
<title>n5_5</title>
<ellipse fill="#00ffff" stroke="black" cx="1369" cy="-34" rx="27" ry="18"/>
</g>
<!-- n5_4&#45;&gt;n5_5 -->
<g id="edge26" class="edge">
<title>n5_4&#45;&gt;n5_5</title>
<path fill="none" stroke="black" d="M1311.57,-90.83C1321.75,-80.94 1335.52,-67.55 1347.03,-56.36"/>
<polygon fill="black" stroke="black" points="1349.47,-58.87 1354.2,-49.38 1344.59,-53.85 1349.47,-58.87"/>
</g>
</g>
</svg>
